<svg width="60" height="60" viewBox="0 0 60 60" fill="none" xmlns="http://www.w3.org/2000/svg">
<path fill-rule="evenodd" clip-rule="evenodd" d="M42.5 17.5C42.5 10.5964 36.9035 5 30 5C23.0964 5 17.5 10.5964 17.5 17.5V25C17.5 31.9036 23.0964 37.5 30 37.5C36.9035 37.5 42.5 31.9036 42.5 25V17.5ZM51.5175 52.3125C47.1625 46.4375 39.155 42.5 30 42.5C20.845 42.5 12.84 46.435 8.48499 52.31L13.0875 54.49C16.6325 50.29 22.8825 47.5 30 47.5C37.1175 47.5 43.3675 50.29 46.9125 54.49L51.5175 52.3125Z" fill="white"/>
</svg>
