<svg width="60" height="60" viewBox="0 0 60 60" fill="none" xmlns="http://www.w3.org/2000/svg">
<path fill-rule="evenodd" clip-rule="evenodd" d="M17.5 17.5V7.5C17.5 6.11929 18.6193 5 20 5H52.5C53.8807 5 55 6.11929 55 7.5V40C55 41.3807 53.8807 42.5 52.5 42.5H42.5V52.4825C42.5 53.8725 41.3775 55 39.9825 55H7.5175C6.84962 55.0007 6.20889 54.7356 5.73663 54.2634C5.26436 53.7911 4.99934 53.1504 5 52.4825L5.0075 20.0175C5.0075 18.6275 6.13 17.5 7.525 17.5H17.5ZM22.5 17.5H39.9825C41.3725 17.5 42.5 18.6225 42.5 20.0175V37.5H50V10H22.5V17.5ZM35.3975 30.8575L21.2575 45L12.415 36.16L15.95 32.625L21.2575 37.93L31.8625 27.3225L35.3975 30.8575Z" fill="white"/>
</svg>
