<svg width="60" height="60" viewBox="0 0 60 60" fill="none" xmlns="http://www.w3.org/2000/svg">
<path fill-rule="evenodd" clip-rule="evenodd" d="M32.5 4.99756L45 5.00006V12.5001L41.5925 15.3451C38.7649 13.8615 35.6777 12.9371 32.5 12.6226V5.00006V4.99756ZM50 37.5001C50 26.4544 41.0457 17.5001 30 17.5001C18.9543 17.5001 10 26.4544 10 37.5001C10 48.5458 18.9543 57.5001 30 57.5001C41.0457 57.5001 50 48.5458 50 37.5001ZM26.6925 32.9501L30 26.2501L33.3075 32.9476L40.7 34.0226L35.35 39.2376L36.6125 46.6001L30 43.1251L23.3875 46.6026L24.65 39.2376L19.3 34.0251L26.6925 32.9501ZM27.5 12.6226V4.99756L15 5.00006V12.5001L18.41 15.3426C21.2371 13.8602 24.3234 12.9367 27.5 12.6226Z" fill="white"/>
</svg>
